<svg xmlns="http://www.w3.org/2000/svg" xmlns:svg="http://www.w3.org/2000/svg" xmlns:xlink="http://www.w3.org/1999/xlink" id="svg8" width="1920" height="1080" version="1.1" viewBox="0 0 508 285.75"><defs id="defs2"><linearGradient id="linearGradient53978"><stop style="stop-color:#252438;stop-opacity:.14928354" id="stop53974" offset="0"/><stop style="stop-color:#644147;stop-opacity:0" id="stop53976" offset="1"/></linearGradient><linearGradient id="linearGradient15319"><stop style="stop-color:#844a4a;stop-opacity:.14509805" id="stop15315" offset="0"/><stop style="stop-color:#644147;stop-opacity:0" id="stop15317" offset="1"/></linearGradient><linearGradient id="linearGradient13547"><stop style="stop-color:#9a422c;stop-opacity:.28627452" id="stop13543" offset="0"/><stop style="stop-color:#644147;stop-opacity:0" id="stop13545" offset="1"/></linearGradient><linearGradient id="linearGradient11113"><stop style="stop-color:#ad1e1e;stop-opacity:.12592334" id="stop11109" offset="0"/><stop style="stop-color:#8c5b64;stop-opacity:0" id="stop11111" offset="1"/></linearGradient><linearGradient id="linearGradient23959"><stop style="stop-color:#643b31;stop-opacity:1" id="stop23955" offset="0"/><stop style="stop-color:#b8715c;stop-opacity:.65490198" id="stop2803" offset=".193"/><stop style="stop-color:#714146;stop-opacity:1" id="stop9389" offset=".591"/><stop style="stop-color:#1c1a27;stop-opacity:1" id="stop23957" offset="1"/></linearGradient><clipPath id="clipPath1021" clipPathUnits="userSpaceOnUse"><rect style="fill:#0f0;stroke:none;stroke-width:1.36635;stroke-linecap:round;stroke-linejoin:round" id="rect1023" width="508" height="285.75" x="0" y="0" d="m 0,0 c 169.33333,0 508,-169.33333 508,0 0,95.25 95.25,285.75 0,285.75 -169.33333,0 -508,169.33333 -508,0 C 0,190.5 -95.25,0 0,0 Z"/></clipPath><clipPath id="clipPath1025" clipPathUnits="userSpaceOnUse"><rect style="fill:#0f0;stroke:none;stroke-width:1.36635;stroke-linecap:round;stroke-linejoin:round" id="rect1027" width="508" height="285.75" x="0" y="0" d="m 0,0 c 169.33333,0 508,-169.33333 508,0 0,95.25 95.25,285.75 0,285.75 -169.33333,0 -508,169.33333 -508,0 C 0,190.5 -95.25,0 0,0 Z"/></clipPath><clipPath id="clipPath1029" clipPathUnits="userSpaceOnUse"><rect style="fill:#0f0;stroke:none;stroke-width:1.36635;stroke-linecap:round;stroke-linejoin:round" id="rect1031" width="508" height="285.75" x="0" y="0" d="m 0,0 c 169.33333,0 508,-169.33333 508,0 0,95.25 95.25,285.75 0,285.75 -169.33333,0 -508,169.33333 -508,0 C 0,190.5 -95.25,0 0,0 Z"/></clipPath><clipPath id="clipPath1033" clipPathUnits="userSpaceOnUse"><rect style="fill:#0f0;stroke:none;stroke-width:1.36635;stroke-linecap:round;stroke-linejoin:round" id="rect1035" width="508" height="285.75" x="0" y="0"/></clipPath><clipPath id="clipPath1037" clipPathUnits="userSpaceOnUse"><rect style="fill:#0f0;stroke:none;stroke-width:5.16416;stroke-linecap:round;stroke-linejoin:round" id="rect1039" width="1920" height="1080" x="0" y="0"/></clipPath><clipPath id="clipPath1041" clipPathUnits="userSpaceOnUse"><rect style="fill:#0f0;stroke:none;stroke-width:1.36635;stroke-linecap:round;stroke-linejoin:round" id="rect1043" width="508" height="285.75" x="0" y="0"/></clipPath><clipPath id="clipPath1045" clipPathUnits="userSpaceOnUse"><rect style="fill:#0f0;stroke:none;stroke-width:1.36635;stroke-linecap:round;stroke-linejoin:round" id="rect1047" width="508" height="285.75" x="0" y="0"/></clipPath><clipPath id="clipPath1049" clipPathUnits="userSpaceOnUse"><rect style="fill:#0f0;stroke:none;stroke-width:1.36635;stroke-linecap:round;stroke-linejoin:round" id="rect1051" width="508" height="285.75" x="0" y="0"/></clipPath><clipPath id="clipPath1053" clipPathUnits="userSpaceOnUse"><rect style="fill:#0f0;stroke:none;stroke-width:1.36635;stroke-linecap:round;stroke-linejoin:round" id="rect1055" width="508" height="285.75" x="0" y="0"/></clipPath><clipPath id="clipPath1510" clipPathUnits="userSpaceOnUse"><rect style="fill:#1d0f01;stroke:none;stroke-width:2.20864;stroke-linecap:round;stroke-linejoin:round" id="rect1512" width="508" height="285.75" x="3.023" y="0" d="M 3.0231142,0 C 172.35645,0 511.02311,-169.33333 511.02311,0 c 0,95.25 95.25,285.75 0,285.75 -169.33333,0 -507.9999958,169.33334 -507.9999958,0 0,-95.25 0,-190.5 0,-285.75 z"/></clipPath><filter style="color-interpolation-filters:sRGB" id="filter2575" width="1.524" height="1.524" x="-.262" y="-.262"><feGaussianBlur id="feGaussianBlur2577" stdDeviation="18.273"/></filter><filter style="color-interpolation-filters:sRGB" id="filter2055" width="1.292" height="1.323" x="-.146" y="-.161"><feGaussianBlur id="feGaussianBlur2053" result="blur" stdDeviation="6.25432 6.91395"/></filter><filter style="color-interpolation-filters:sRGB" id="filter2059" width="1.619" height="1.684" x="-.309" y="-.342"><feGaussianBlur id="feGaussianBlur2057" result="blur" stdDeviation="6.25432 6.91395"/></filter><linearGradient id="linearGradient3068" x1="379.737" x2="379.737" y1="-314.673" y2="-598.785" gradientTransform="matrix(0.3716806,0,0,1.2085456,239.18915,95.157582)" gradientUnits="userSpaceOnUse" xlink:href="#linearGradient2079"/><linearGradient id="linearGradient2079"><stop style="stop-color:#fff;stop-opacity:0" id="stop2075" offset="0"/><stop id="stop2085" offset=".223" style="stop-color:#fff;stop-opacity:1"/><stop id="stop2083" offset=".494" style="stop-color:#fff;stop-opacity:0"/><stop style="stop-color:#fff;stop-opacity:1" id="stop2087" offset=".798"/><stop style="stop-color:#fff;stop-opacity:0" id="stop2077" offset="1"/></linearGradient><linearGradient id="linearGradient3070" x1="379.737" x2="379.737" y1="-314.673" y2="-598.785" gradientTransform="matrix(0,0.3716806,-1.2085456,0,-170.76833,-597.7832)" gradientUnits="userSpaceOnUse" xlink:href="#linearGradient2079"/><linearGradient id="linearGradient3072" x1="379.737" x2="379.737" y1="-314.673" y2="-598.785" gradientTransform="matrix(0.26281787,0.26281787,-0.41803911,0.41803911,89.883392,-365.59355)" gradientUnits="userSpaceOnUse" xlink:href="#linearGradient2079"/><filter style="color-interpolation-filters:sRGB" id="filter3048" width="1.268" height="1.267" x="-.134" y="-.133"><feGaussianBlur id="feGaussianBlur3050" stdDeviation="6.972"/></filter><linearGradient id="linearGradient3074" x1="379.737" x2="379.737" y1="-314.673" y2="-598.785" gradientTransform="matrix(-0.26281787,0.26281787,-0.41803911,-0.41803911,289.52897,-747.40154)" gradientUnits="userSpaceOnUse" xlink:href="#linearGradient2079"/><filter style="color-interpolation-filters:sRGB" id="filter3044" width="1.267" height="1.268" x="-.133" y="-.134"><feGaussianBlur id="feGaussianBlur3046" stdDeviation="6.972"/></filter><linearGradient id="linearGradient2673" x1="194.234" x2="194.234" y1="98.433" y2="5.084" gradientUnits="userSpaceOnUse" xlink:href="#linearGradient23959"/><linearGradient id="linearGradient11115" x1="250.007" x2="250.007" y1="210.696" y2="157.411" gradientTransform="matrix(0.95247338,0,0,0.97289918,-37.496697,9.080827)" gradientUnits="userSpaceOnUse" xlink:href="#linearGradient11113"/><linearGradient id="linearGradient13318" x1="250.007" x2="250.187" y1="210.696" y2="162.683" gradientTransform="matrix(1.3658828,0,0,2.383844,-204.85131,-215.69002)" gradientUnits="userSpaceOnUse" xlink:href="#linearGradient13547"/><linearGradient id="linearGradient15481" x1="203.133" x2="203.133" y1="295.508" y2="231.075" gradientTransform="matrix(1.0245115,0,0,1.0386042,0.24263068,-6.5306875)" gradientUnits="userSpaceOnUse" xlink:href="#linearGradient15319"/><linearGradient id="linearGradient53755" x1="250.007" x2="250.187" y1="210.696" y2="162.683" gradientTransform="matrix(1.3658828,0,0,5.9966004,-205.2351,-1036.9229)" gradientUnits="userSpaceOnUse" xlink:href="#linearGradient53978"/><linearGradient id="linearGradient53797" x1="250.007" x2="250.187" y1="210.696" y2="162.683" gradientTransform="matrix(1.3658828,0,0,3.73725,-205.55278,-612.48653)" gradientUnits="userSpaceOnUse" xlink:href="#linearGradient13547"/><linearGradient id="linearGradient54093" x1="250.007" x2="250.187" y1="210.696" y2="162.683" gradientTransform="matrix(1.3658828,0,0,5.9966004,-204.87683,-1022.2105)" gradientUnits="userSpaceOnUse" xlink:href="#linearGradient53978"/><linearGradient id="linearGradient54116" x1="250.007" x2="250.187" y1="210.696" y2="162.683" gradientTransform="matrix(1.3658828,0,0,5.9966004,-204.86585,-985.86163)" gradientUnits="userSpaceOnUse" xlink:href="#linearGradient53978"/></defs><metadata id="metadata5"/><g id="layer3" style="display:inline;opacity:1"><rect style="opacity:1;fill:#4d4d4d;fill-opacity:1;stroke:none;stroke-width:1.62662;stroke-linecap:round;stroke-linejoin:round;stroke-miterlimit:4;stroke-dasharray:none;stroke-opacity:1" id="rect29163" width="508" height="285.75" x="0" y="0"/></g><g id="layer1" style="display:inline"><rect style="display:inline;opacity:1;fill:url(#linearGradient2673);fill-opacity:1;stroke:none;stroke-width:.268999;stroke-linecap:round;stroke-linejoin:round;stroke-opacity:1" id="rect991" width="586.036" height="217.524" x="-38.587" y="-26.684" clip-path="url(#clipPath1053)" transform="scale(1,1.49733)"/><rect style="display:inline;opacity:1;fill:none;fill-opacity:1;stroke:none;stroke-width:.268999;stroke-linecap:round;stroke-linejoin:round;stroke-opacity:1" id="rect240" width="586.036" height="217.524" x="-38.587" y="-26.684" clip-path="url(#clipPath1053)" transform="scale(1,1.49733)"/><circle style="display:inline;fill:#fff;fill-opacity:.288723;stroke:none;stroke-width:.256805;stroke-linecap:round;stroke-linejoin:round;stroke-opacity:1" id="path10357-3" cx="364.776" cy="72.689" r="42.76"/><circle style="display:inline;fill:#fff;fill-opacity:.371653;stroke:none;stroke-width:.207315;stroke-linecap:round;stroke-linejoin:round;stroke-opacity:1" id="path10357-0" cx="364.527" cy="72.917" r="34.52"/><circle style="display:inline;opacity:1;fill:#fff;fill-opacity:1;stroke:none;stroke-width:.15141;stroke-linecap:round;stroke-linejoin:round;stroke-opacity:1" id="path10357" cx="364.459" cy="72.845" r="25.211"/></g><g id="layer4" style="display:inline"><path id="path14437" d="m 236.14884,42.562435 c -0.42071,0.08424 -0.71994,0.581106 -0.54691,0.986056 0.0946,0.257324 0.40373,0.42429 0.66612,0.318502 0.26864,-0.05448 0.52941,-0.248073 0.57828,-0.530831 0.0695,-0.281772 -0.0587,-0.623841 -0.34146,-0.732883 -0.11023,-0.05414 -0.23658,-0.05709 -0.35603,-0.04084 z" style="fill:#fff;stroke-width:.473856;stroke-linecap:round;stroke-linejoin:round"/><use id="use16977" width="100%" height="100%" x="0" y="0" transform="matrix(1.0985392,0,0,1.0985392,19.944174,22.724767)" xlink:href="#path14437"/><use id="use16979" width="100%" height="100%" x="0" y="0" transform="matrix(1.108897,0,0,1.108897,-23.417881,45.321039)" xlink:href="#path14437"/><use id="use16981" width="100%" height="100%" x="0" y="0" transform="matrix(1.3970613,0,0,1.3970613,-110.58495,14.441433)" xlink:href="#path14437"/><use id="use16983" width="100%" height="100%" x="0" y="0" transform="matrix(1.3866339,0,0,1.3866339,-82.838702,3.5490604)" xlink:href="#path14437"/><use id="use16985" width="100%" height="100%" x="0" y="0" transform="matrix(0.72243103,0,0,0.72243103,41.157727,17.557301)" xlink:href="#path14437"/><use id="use16989" width="100%" height="100%" x="0" y="0" transform="matrix(0.73148079,0,0,0.73148079,-24.976555,28.752923)" xlink:href="#path14437"/><use id="use16991" width="100%" height="100%" x="0" y="0" transform="matrix(0.66229225,0,0,0.66229225,184.81145,39.312722)" xlink:href="#path14437"/><use id="use16993" width="100%" height="100%" x="0" y="0" transform="matrix(0.60566222,0,0,0.60566222,184.57956,52.035892)" xlink:href="#path14437"/><use id="use16995" width="100%" height="100%" x="0" y="0" transform="matrix(1.3428992,0,0,1.3428992,-3.1870285,24.604618)" xlink:href="#path14437"/><use id="use16999" width="100%" height="100%" x="0" y="0" transform="matrix(0.87775144,0,0,0.87775144,130.44774,33.990746)" xlink:href="#path14437"/><use id="use17001" width="100%" height="100%" x="0" y="0" transform="matrix(0.84040884,0,0,0.84040884,-7.974611,-2.1732858)" xlink:href="#path14437"/><use id="use17003" width="100%" height="100%" x="0" y="0" transform="matrix(1.0531014,0,0,1.0531014,-78.78449,46.39444)" xlink:href="#path14437"/><use id="use17011" width="100%" height="100%" x="0" y="0" transform="matrix(1.1386103,0,0,1.1386103,81.596061,-0.21327783)" xlink:href="#path14437"/><g id="g3066" transform="matrix(0.04840365,0,0,0.04840365,109.35655,52.222036)"><circle style="fill:#6e4d4c;fill-opacity:1;stroke:none;stroke-width:3.08427;stroke-linejoin:round;filter:url(#filter2575)" id="circle3052" cx="380.767" cy="-455.763" r="83.759"/><circle id="circle3054" cx="380.767" cy="-455.763" r="51.395" style="fill:#9e7e7e;fill-opacity:1;stroke:none;stroke-width:1.89254;stroke-linejoin:round;filter:url(#filter2055)"/><circle style="fill:#edf1f2;fill-opacity:1;stroke:none;stroke-width:.893357;stroke-linejoin:round;filter:url(#filter2059)" id="circle3056" cx="380.767" cy="-455.763" r="24.261"/><path id="path3058" d="m 376.02075,-629.35683 h 8.31338 l 3.65581,171.28848 -3.73295,174.84208 h -7.42928 l -3.45604,-175.1592 z" style="opacity:.5;fill:url(#linearGradient3068);fill-opacity:1;stroke:none;stroke-width:.759934;stroke-linejoin:round"/><path style="opacity:.5;fill:url(#linearGradient3070);fill-opacity:1;stroke:none;stroke-width:.759934;stroke-linejoin:round" id="path3060" d="m 553.74608,-460.9516 v 8.31338 l -171.28848,3.65581 -174.84208,-3.73295 v -7.42928 l 175.1592,-3.45604 z"/><path style="opacity:.5;fill:url(#linearGradient3072);fill-opacity:1;stroke:none;stroke-width:.531509;stroke-linejoin:round;filter:url(#filter3048)" id="path3062" d="m 437.24939,-519.45044 5.87844,5.87844 -56.66408,61.83419 -63.11794,57.83874 -5.25329,-5.25329 58.14424,-63.03182 z"/><path id="path3064" d="m 443.38586,-400.03554 -5.87844,5.87844 -61.83419,-56.66408 -57.83874,-63.11794 5.25329,-5.25329 63.03182,58.14424 z" style="opacity:.5;fill:url(#linearGradient3074);fill-opacity:1;stroke:none;stroke-width:.531509;stroke-linejoin:round;filter:url(#filter3044)"/></g><use id="use19753" width="100%" height="100%" x="0" y="0" transform="matrix(1.0946368,0,0,1.0946368,246.62771,20.151386)" xlink:href="#use17001"/><use id="use19755" width="100%" height="100%" x="0" y="0" transform="matrix(0.91317618,0,0,0.91317618,321.24883,-3.3220148)" xlink:href="#use17001"/><use id="use19757" width="100%" height="100%" x="0" y="0" transform="matrix(1.0936039,0,0,1.0936039,229.66013,-30.131808)" xlink:href="#use17001"/><use id="use19759" width="100%" height="100%" x="0" y="0" transform="matrix(0.95755867,0,0,0.95755867,226.97421,6.6027481)" xlink:href="#use17001"/><use id="use19763" width="100%" height="100%" x="0" y="0" transform="matrix(1.0802237,0,0,1.0802237,113.69389,7.0150704)" xlink:href="#use17001"/><use id="use19765" width="100%" height="100%" x="0" y="0" transform="matrix(1.0632686,0,0,1.0632686,-48.925419,16.067353)" xlink:href="#use17001"/><use id="use19767" width="100%" height="100%" x="0" y="0" transform="matrix(1.0879484,0,0,1.0879484,-80.402346,97.523339)" xlink:href="#use17001"/><use id="use19769" width="100%" height="100%" x="0" y="0" transform="matrix(1.0647346,0,0,1.0647346,-172.20492,-6.3473743)" xlink:href="#use17001"/><use id="use19771" width="100%" height="100%" x="0" y="0" transform="matrix(0.97856494,0,0,0.97856494,-151.28986,14.693525)" xlink:href="#use17001"/><use id="use19775" width="100%" height="100%" x="0" y="0" transform="matrix(0.97314255,0,0,0.97314255,-111.6846,29.444195)" xlink:href="#use17001"/><use id="use19777" width="100%" height="100%" x="0" y="0" transform="matrix(1.0785824,0,0,1.0785824,-76.978963,62.970961)" xlink:href="#use17001"/><use id="use19779" width="100%" height="100%" x="0" y="0" transform="matrix(1.0403117,0,0,1.0403117,-17.21862,-13.22644)" xlink:href="#use17001"/><use id="use19781" width="100%" height="100%" x="0" y="0" transform="matrix(0.95750047,0,0,0.95750047,-4.9794869,16.189785)" xlink:href="#use17001"/><use id="use19783" width="100%" height="100%" x="0" y="0" transform="matrix(1.0045992,0,0,1.0045992,51.731558,52.105052)" xlink:href="#use17001"/><use id="use19789" width="100%" height="100%" x="0" y="0" transform="matrix(0.96197448,0,0,0.96197448,44.067997,120.77212)" xlink:href="#use17001"/><use id="use19791" width="100%" height="100%" x="0" y="0" transform="matrix(1.0335999,0,0,1.0335999,121.34459,55.406682)" xlink:href="#use17001"/><use id="use19793" width="100%" height="100%" x="0" y="0" transform="matrix(0.90841479,0,0,0.90841479,178.11074,53.195234)" xlink:href="#use17001"/><use id="use19797" width="100%" height="100%" x="0" y="0" transform="matrix(1.0838313,0,0,1.0838313,205.8966,73.327712)" xlink:href="#use17001"/><use id="use19799" width="100%" height="100%" x="0" y="0" transform="matrix(0.99528343,0,0,0.99528343,199.77558,53.518204)" xlink:href="#use17001"/><use id="use19801" width="100%" height="100%" x="0" y="0" transform="matrix(0.92877405,0,0,0.92877405,271.23214,79.070592)" xlink:href="#use17001"/><use id="use19803" width="100%" height="100%" x="0" y="0" transform="matrix(0.98835695,0,0,0.98835695,167.75999,88.53388)" xlink:href="#use17001"/><use id="use19805" width="100%" height="100%" x="0" y="0" transform="matrix(0.95110862,0,0,0.95110862,232.39611,37.546185)" xlink:href="#use17001"/><use id="use19807" width="100%" height="100%" x="0" y="0" transform="matrix(0.92509008,0,0,0.92509008,210.79571,57.914962)" xlink:href="#use17001"/><use id="use19809" width="100%" height="100%" x="0" y="0" transform="matrix(0.95674388,0,0,0.95674388,296.46699,9.3032977)" xlink:href="#use17001"/><use id="use19811" width="100%" height="100%" x="0" y="0" transform="matrix(1.0034848,0,0,1.0034848,309.88101,15.138589)" xlink:href="#use17001"/><use id="use19813" width="100%" height="100%" x="0" y="0" transform="matrix(1.0765984,0,0,1.0765984,257.21453,-15.711097)" xlink:href="#use17001"/><use id="use19821" width="100%" height="100%" x="0" y="0" transform="matrix(1.0168932,0,0,1.0168932,51.327565,145.04982)" xlink:href="#use17001"/><use id="use19823" width="100%" height="100%" x="0" y="0" transform="matrix(0.92658706,0,0,0.92658706,-25.71125,90.860431)" xlink:href="#use17001"/><use id="use19825" width="100%" height="100%" x="0" y="0" transform="matrix(0.91158082,0,0,0.91158082,63.995795,124.09439)" xlink:href="#use17001"/><use id="use19827" width="100%" height="100%" x="0" y="0" transform="matrix(0.9384284,0,0,0.9384284,5.1002496,215.57369)" xlink:href="#use17001"/><use id="use19829" width="100%" height="100%" x="0" y="0" transform="matrix(1.0364059,0,0,1.0364059,-29.709696,166.17378)" xlink:href="#use17001"/><use id="use19831" width="100%" height="100%" x="0" y="0" transform="matrix(1.0936414,0,0,1.0936414,-29.753458,78.16011)" xlink:href="#use17001"/><use id="use19833" width="100%" height="100%" x="0" y="0" transform="matrix(0.9668212,0,0,0.9668212,-0.1846448,174.71248)" xlink:href="#use17001"/><use id="use19835" width="100%" height="100%" x="0" y="0" transform="matrix(1.0326929,0,0,1.0326929,-12.048029,196.69311)" xlink:href="#use17001"/><use id="use20139" width="100%" height="100%" x="0" y="0" transform="matrix(0.9729506,0,0,0.9729506,103.87259,88.273011)" xlink:href="#use17001"/><use id="use20143" width="100%" height="100%" x="0" y="0" transform="matrix(0.95058327,0,0,0.95058327,98.263732,130.91113)" xlink:href="#use17001"/><use id="use20145" width="100%" height="100%" x="0" y="0" transform="matrix(1.0528082,0,0,1.0528082,87.389607,134.3191)" xlink:href="#use17001"/><use id="use20147" width="100%" height="100%" x="0" y="0" transform="matrix(0.92792387,0,0,0.92792387,109.09424,127.50585)" xlink:href="#use17001"/><use id="use20149" width="100%" height="100%" x="0" y="0" transform="matrix(1.0616769,0,0,1.0616769,112.85456,140.57539)" xlink:href="#use17001"/><use id="use20605" width="100%" height="100%" x="0" y="0" transform="matrix(0.97788771,0,0,0.97788771,-117.16918,4.465802)" xlink:href="#use17001"/><use id="use20607" width="100%" height="100%" x="0" y="0" transform="matrix(0.92576256,0,0,0.92576256,-85.465232,-1.7247163)" xlink:href="#use17001"/><use id="use20609" width="100%" height="100%" x="0" y="0" transform="matrix(0.90518872,0,0,0.90518872,-120.50731,-19.688976)" xlink:href="#use17001"/><use id="use20611" width="100%" height="100%" x="0" y="0" transform="matrix(0.96446975,0,0,0.96446975,71.722425,-18.347163)" xlink:href="#use17001"/><use id="use20613" width="100%" height="100%" x="0" y="0" transform="matrix(1.0970069,0,0,1.0970069,65.173434,-25.174898)" xlink:href="#use17001"/><use id="use20615" width="100%" height="100%" x="0" y="0" transform="matrix(0.96696649,0,0,0.96696649,77.041067,-2.4877718)" xlink:href="#use17001"/><use id="use20617" width="100%" height="100%" x="0" y="0" transform="matrix(1.0051936,0,0,1.0051936,34.147207,-17.637435)" xlink:href="#use17001"/><use id="use20619" width="100%" height="100%" x="0" y="0" transform="matrix(1.0655272,0,0,1.0655272,102.82794,-22.445319)" xlink:href="#use17001"/><use id="use20623" width="100%" height="100%" x="0" y="0" transform="matrix(1.0885748,0,0,1.0885748,155.66066,-27.222089)" xlink:href="#use17001"/><use id="use20625" width="100%" height="100%" x="0" y="0" transform="matrix(0.93793908,0,0,0.93793908,209.53347,-1.3305146)" xlink:href="#use17001"/></g><g id="g1019" style="display:inline;opacity:1"><rect style="display:inline;fill:#241616;fill-opacity:1;stroke:none;stroke-width:.307898;stroke-linecap:round;stroke-linejoin:round;stroke-opacity:1" id="rect993" width="557.308" height="56.866" x="-26.377" y="174.78" clip-path="url(#clipPath1049)"/><path id="path997" d="m 221.62245,165.51363 -25.87773,4.84246 c 15.4271,7.15454 10.53423,4.47558 26.68375,9.85025 l 0.38757,-0.92656 c 1.59572,0.93476 3.23435,1.82148 4.90668,2.6696 7.44748,3.34249 -13.9007,-4.43176 2.54928,-1.19403 16.78284,8.5333 88.92842,13.7691 131.32754,11.19607 6.38815,-1.21563 4.81962,-1.60932 7.09043,-2.61048 0.91159,-0.4019 1.82656,-0.79617 2.7436,-1.18546 2.22709,-0.94542 6.49935,-2.70212 6.69927,-2.79346 2.97995,-2.31095 3.65339,-5.29669 6.34568,-7.87387 0.48409,-0.46338 0.98365,-0.90421 1.49138,-1.33326 0.31417,-0.27905 0.61428,-0.5802 0.93639,-0.84697 4.16261,-3.44757 9.14146,-5.66924 13.76299,-8.42326 0.41553,-0.24721 0.8347,-0.50231 1.25314,-0.75448 1.87264,-1.15681 3.66147,-1.98997 5.48913,-3.29308 z" clip-path="url(#clipPath1041)" style="opacity:1;fill:#42241f;fill-opacity:1;stroke:none;stroke-width:.268999;stroke-linecap:round;stroke-linejoin:round;stroke-opacity:1"/><path style="fill:#5a3227;fill-opacity:1;stroke:none;stroke-width:.264583px;stroke-linecap:butt;stroke-linejoin:miter;stroke-opacity:1" id="path1001" d="m 420.45344,142.42401 c 0,0 -125.72843,1.06981 -135.22515,4.10875 0,0 -152.86137,3.6307 -154.6636,5.54525 l 8.81545,20.66086 116.43967,-4.92032 57.73918,-6.86628 c 0,0 104.59585,-3.14265 105.33259,-0.55381 0.73675,2.58884 22.57112,-0.39596 22.57112,-0.39596 z" clip-path="url(#clipPath1033)" transform="translate(-0.7143529,8.0375282)"/><rect style="display:inline;fill:url(#linearGradient53797);fill-opacity:1;fill-rule:nonzero;stroke-width:.597785" id="rect11107-0-31" width="507.963" height="195.737" x="-.64" y="-15.775"/><path id="path999" d="m 1489.6445,602.38086 c -117.6872,0.32929 -304.539,5.94336 -304.539,5.94336 l -218.22659,25.95117 -288.91797,12.20899 -19.1836,37.5996 235.96133,5.12991 c 61.65729,-8.53459 520.32583,-3.31936 520.32583,-3.31936 l 3.8306,-1.50352 127.8705,-50.18984 4.8086,-31.23242 c -16.1856,-0.48591 -37.4714,-0.65632 -61.9297,-0.58789 z" clip-path="url(#clipPath1037)" transform="matrix(0.26458333,0,0,0.27817592,0,-8.1877185)" style="fill:#42241f;fill-opacity:1;stroke:none;stroke-width:.999999px;stroke-linecap:butt;stroke-linejoin:miter;stroke-opacity:1"/><path style="display:inline;opacity:1;fill:#42241f;fill-opacity:1;stroke:none;stroke-width:.978958;stroke-linecap:butt;stroke-linejoin:miter;stroke-miterlimit:4;stroke-dasharray:none;stroke-opacity:1" id="path6104" d="m 232.36508,108.66845 c 1.05217,1.29863 1.3676,3.4252 1.73244,5.15009 0.83022,3.92508 1.28743,15.96076 1.2534,11.9492 -0.0385,-4.53337 -0.10609,-9.11871 0.98064,-13.54957 0.53741,-2.19114 -0.0416,-5.36625 1.90258,-6.51895 1.84821,-1.09583 3.50326,1.16754 5.99342,0.0461 5.97518,-2.69079 11.48186,-6.56651 17.92203,-8.135201 4.9294,-1.200699 10.10792,0.443334 14.11935,3.371931 1.74667,1.27518 4.23603,2.17664 4.94162,4.22252 0.89245,2.5877 0.56608,5.40982 0.4715,8.09668 -0.30385,8.63205 -1.64309,17.4287 0.15697,25.93991 0.37592,1.77746 0.89531,3.46793 2.2781,4.8593 7.12109,7.16527 15.95645,12.43503 25.40874,15.96332 6.03201,2.25159 13.26714,1.83808 18.46167,5.61525 2.86469,2.08304 11.64409,6.26851 8.14753,6.81252 -5.51826,0.85856 -11.06699,1.47865 -16.64161,1.84506 -23.03792,1.51423 -46.1355,2.59776 -69.2199,2.15435 -9.31732,-0.17897 -18.78198,0.25341 -27.92225,-1.67644 -1.93505,-0.40856 -3.58214,-0.66543 -5.65877,-0.27656 -7.13446,1.336 -14.39617,0.33568 -21.60005,0.55395 -5.68114,0.17213 -19.9954,5.43845 -17.04319,0.57888 0.71151,-1.1712 3.4224,-1.8156 5.0544,-2.25242 6.08859,-1.62967 10.97914,-5.7457 15.92745,-9.4081 6.32047,-4.67798 11.81145,-10.38124 18.06235,-15.1441 2.75911,-2.1023 5.31717,-6.25715 8.78752,-5.64411 1.96801,0.34765 2.19836,-2.33501 2.6445,-3.81829 3.00899,-10.00402 0.16903,-20.87017 3.83956,-30.73537 z" clip-path="url(#clipPath1029)" transform="translate(-4.0971114,-3.7867866)"/><rect style="display:inline;fill:url(#linearGradient11115);fill-opacity:1;fill-rule:nonzero;stroke-width:.254696" id="rect11107" width="354.219" height="50.955" x="105.396" y="164.42"/><rect style="display:inline;fill:url(#linearGradient54093);fill-opacity:1;fill-rule:nonzero;stroke-width:.757219" id="rect11107-0-3-0" width="507.963" height="314.069" x=".036" y="-64.758"/><path id="path126" d="m 1.7929522,197.85006 c 2.9236856,-0.89742 6.1993231,-0.73725 9.2769108,-0.79589 38.762567,-0.73858 77.53918,-0.32554 116.302407,-1.0518 30.88201,-0.5786 61.92396,0.0332 92.59687,-3.7675 6.84582,-0.84827 13.74477,-1.75001 20.39879,-3.77864 4.7856,-1.459 0.17079,-4.7655 -2.48483,-5.85425 -1.70489,-0.69897 -3.4565,-1.27782 -5.21825,-1.81471 m 0,0 c -21.92355,-6.98248 -43.70763,-14.71927 -64.34423,-24.91451 -9.4545,-4.67087 -18.8756,-9.66621 -27.03014,-16.48325 -2.63279,-2.20096 -1.85504,-6.05973 -1.88206,-9.09068 -0.0682,-7.65535 1.48177,-15.45357 -0.0287,-22.98584 -2.46783,-12.306165 -0.12109,-24.92524 -2.17076,-37.310615 -0.62438,-3.772891 1.80157,-11.080528 -2.02739,-11.325586 -3.45455,-0.221095 -4.46656,2.617701 -4.56579,5.831687 -0.1555,5.036577 -0.11685,10.06668 -0.48771,15.098491 -0.33877,4.5964 1.02456,9.305318 -0.2277,13.809304 -0.80745,2.904155 -6.09371,5.745849 -7.29886,1.72851 -2.26512,-7.550708 0.25507,-15.393553 -1.90977,-23.149176 -1.32207,-4.736376 -0.23816,-10.091563 -2.3502,-14.503054 -1.6311,-3.40693 -6.27443,-1.545252 -8.8536,-3.395404 -2.53225,-1.816493 -5.47496,-2.892561 -8.63498,-3.132994 C 93.111362,50.37513 85.32968,52.34167 77.619068,50.3748 65.788246,47.356921 54.330224,42.105357 41.931321,41.851064 36.134778,41.732181 29.904801,44.256212 27.220499,49.654381 14.978644,74.272926 11.2282,102.38836 13.109312,129.72492 c 0.29711,4.31764 0.480306,9.24024 -2.095671,12.6443 -2.2847293,3.01919 -9.2206888,2.32739 -9.2206888,6.00622 0,16.49154 0,32.98308 0,49.47462" clip-path="url(#clipPath1510)" transform="matrix(0.99099903,0,0,1,-3.0507969,0.99981074)" style="display:inline;fill:#2c1b16;fill-opacity:1;stroke:none;stroke-width:1.33048;stroke-linecap:butt;stroke-linejoin:miter;stroke-miterlimit:4;stroke-dasharray:none;stroke-opacity:1"/><path style="display:inline;fill:#2c1b16;fill-opacity:1;stroke:none;stroke-width:.266902px;stroke-linecap:butt;stroke-linejoin:miter;stroke-opacity:1" id="path12667" d="m 225.53663,181.2497 7.63435,0.66886 c 0,0 20.96761,6.51723 56.94929,7.16697 35.9817,0.64972 61.12705,6.09678 78.57665,-0.63782 17.44957,-6.73461 5.11571,-12.20287 24.29932,-13.33262 19.18363,-1.12974 107.69079,-17.91953 107.69079,-17.91953 l 7.76894,31.90715 -10.22723,44.43062 L 0.16020273,240.03372 -0.32857238,175.0349 143.27934,176.8453 Z"/><path style="display:inline;opacity:1;fill:#2c1b16;fill-opacity:1;stroke:none;stroke-width:1.08479;stroke-linecap:butt;stroke-linejoin:miter;stroke-miterlimit:4;stroke-dasharray:none;stroke-opacity:1" id="path6734" d="m 544.7989,181.98462 c 4.68636,-2.29001 9.57352,-4.78527 12.81512,-9.03011 1.82715,-2.39263 1.85758,-5.78719 0.28469,-8.32414 -3.15692,-5.09189 -8.34055,-8.35349 -12.73337,-12.26671 -3.00569,-2.67753 -6.14439,-5.75762 -6.7858,-10.01759 -2.33425,-15.50305 -3.49491,-31.32242 -8.27475,-46.340787 -1.54573,-4.856719 -4.00374,-9.341469 -6.89332,-13.560757 -3.72957,-5.445824 -7.75432,-10.618833 -12.69031,-15.295363 -1.69918,-1.609864 -3.879,-0.482753 -5.42292,0.579089 -2.39548,1.647508 -5.08563,0.03114 -7.70195,-0.107813 -8.30905,-0.441286 -16.33178,2.189412 -24.60477,2.624292 -7.30678,0.38409 -15.03376,-1.148727 -21.92458,1.382149 -3.33445,1.224684 -4.99375,4.547305 -6.93803,7.262464 -1.28072,1.788508 1.37255,4.21789 -0.78706,5.911587 -4.5816,3.593168 -10.50044,5.675168 -16.21984,5.390957 -2.84897,-0.141572 -5.51805,2.951991 -4.81454,5.50992 0.61428,2.23349 0.45465,4.524162 0.43744,6.817492 -0.0852,11.35962 2.11276,22.80163 0.35527,34.08282 -0.57288,3.67727 -1.9609,7.38094 -4.97422,10.04331 -1.16617,1.03035 -1.56265,2.8752 -2.48189,4.25372 -4.41156,6.61571 -11.57949,10.56684 -18.30236,14.44222 -4.22909,2.43785 -9.04472,4.15501 -12.55693,7.55447 -3.02624,2.92909 -5.03077,6.7152 -7.25411,10.24834 -2.7242,4.32907 -5.37294,8.70831 -8.17493,12.98699" clip-path="url(#clipPath1025)" transform="matrix(1.0013188,0,0,1,-0.68171318,1.7341836)"/><rect style="display:inline;fill:url(#linearGradient13318);fill-opacity:1;fill-rule:nonzero;stroke-width:.477428" id="rect11107-0" width="507.963" height="124.853" x=".062" y="164.929"/><rect style="display:inline;fill:url(#linearGradient53755);fill-opacity:1;fill-rule:nonzero;stroke-width:.757219" id="rect11107-0-3" width="507.963" height="314.069" x="-.322" y="-79.47"/><path style="fill:#271914;fill-opacity:1;stroke:none;stroke-width:.264583px;stroke-linecap:butt;stroke-linejoin:miter;stroke-opacity:1" id="path995" d="m 508.12993,190.66317 c 0,0 -122.08407,5.09663 -157.6923,24.75544 0,0 -150.95403,13.20752 -200.24711,2.80372 0,0 -144.7730675,-9.77022 -166.820645,-4.22983 v 90.886 H 523.49846 Z" clip-path="url(#clipPath1045)"/><g id="g208" transform="matrix(0.15357084,0,0,0.15357084,327.65866,102.12571)"><path style="display:inline;opacity:1;fill:#000;stroke:#474747;stroke-width:.264583px;stroke-linecap:butt;stroke-linejoin:miter;stroke-opacity:1" id="path1639" d="m 242.79972,-147.65045 c 24.34133,-3.46164 49.46775,2.23018 69.87478,14.96109 14.61348,9.11661 31.02587,13.10069 47.82057,17.4066 15.90479,4.07775 49.75612,37.164539 42.50445,22.838191 -5.98246,-11.818901 -39.95805,-23.262941 -31.05066,-22.562331 11.22011,0.88252 13.42643,-9.6508 1.662,-11.21391 -16.07109,-2.13533 -6.40912,-10.82563 -0.47847,-20.80285 8.12453,-13.66802 -3.16236,-43.44105 15.1013,-45.50922 9.71693,-1.10034 24.48334,0.0159 15.5444,-16.44298 -4.68549,-8.62718 -29.7249,-8.90011 -25.37925,-11.2715 8.31548,-4.53769 16.29791,-12.57888 1.84274,-6.39565 -13.17821,5.63701 -32.49875,8.26744 -37.03128,21.93954 -5.3678,16.19166 -18.24756,65.65804 -15.13633,48.90837 2.41746,-13.0147 -28.58005,-14.20923 -25.52895,-12.78546 20.39239,9.51591 -3.01761,26.38176 -16.73351,17.56065 -13.30833,-8.55899 -30.03393,-1.65397 -43.01179,3.36946 z"/></g><rect style="display:inline;fill:url(#linearGradient15481);fill-opacity:1;fill-rule:nonzero;stroke:none;stroke-width:.272926" id="rect15313" width="507.843" height="69.37" x=".044" y="216.446"/><rect style="display:inline;fill:url(#linearGradient54116);fill-opacity:1;fill-rule:nonzero;stroke-width:.757219" id="rect11107-0-3-5" width="507.963" height="314.069" x=".047" y="-28.409"/></g><g id="layer2"><path style="fill:#1c110e;fill-opacity:1;stroke:none;stroke-width:.708014;stroke-linecap:butt;stroke-linejoin:miter;stroke-miterlimit:4;stroke-dasharray:none;stroke-opacity:1" id="path10916" d="m 85.027568,309.84212 c 0,0 3.08162,-61.57167 1.41285,-61.57167 -20.488186,0.85182 -18.551696,-39.65545 -18.868616,-67.80877 -0.1352,-12.01673 1.87835,-21.04998 2.40417,-22.05394 0,0 2.93108,-8.9726 8.33053,0.43424 5.752876,8.43198 -2.41767,79.36589 7.530116,79.72397 2.49696,1.04166 -4.01617,-98.23416 4.87249,-106.10609 0,0 5.305163,-0.66895 7.786733,0.65243 0,0 1.927749,5.65911 2.363039,8.59998 1.37559,9.29354 2.80912,12.33031 0.72544,28.17504 l 0.32988,8.85955 c -0.33934,10.49468 -0.23565,19.03341 -0.0538,29.32088 1.74914,2.46147 13.68911,-6.6134 11.48963,-31.8588 0,0 -0.3491,-7.32405 1.92897,-10.38057 2.07121,-2.77895 6.67984,-1.9536 8.67274,9.63817 0,0 6.88262,39.20115 -15.77188,42.13269 -1.86161,0.0954 -2.77542,1.98351 -3.3132,4.62871 -1.96027,9.64206 -1.92978,32.18776 -2.55162,35.56998 0,0 -0.133,36.79682 -1.66738,51.58646 0,0 -0.844729,5.26292 -15.620062,0.45774 z"/></g></svg>