<svg xmlns="http://www.w3.org/2000/svg" xmlns:svg="http://www.w3.org/2000/svg" id="Layer_1" width="711.42" height="151.28" data-name="Layer 1" version="1.1" viewBox="0 0 711.42 151.28"><defs id="defs4"><style id="style2">.cls-1{fill:#333132}.cls-2{fill:#63bc47}</style></defs><title id="title6">simonyi_color</title><path id="path8" d="m 229.53,72.01 c -6.55,5.54 -15.33,5.62 -17.8,5.62 -3.23,0 -13.63,-0.15 -21.18,-8.09 A 20.67,20.67 0 0 1 187.93,66 l 8.55,-5.93 c 2.39,3.54 6.86,8.16 16.87,8.16 a 19.18,19.18 0 0 0 4,-0.38 c 1.15,-0.23 6.47,-1.7 6.47,-6.78 a 5.59,5.59 0 0 0 -1,-3.24 c -1.85,-2.46 -6.78,-3.15 -9.48,-3.77 l -6.47,-1.46 a 33.17,33.17 0 0 1 -8.24,-2.55 13.64,13.64 0 0 1 -7.78,-12.63 16.22,16.22 0 0 1 2.08,-8 c 2.46,-4.16 8.4,-8.93 19.41,-8.93 a 25.77,25.77 0 0 1 21.95,11 l -8.38,6.24 c -1.7,-2.7 -5.55,-8.09 -14.1,-8.09 -0.54,0 -7.39,-0.08 -9.63,4.16 a 4.91,4.91 0 0 0 -0.61,2.47 4.59,4.59 0 0 0 0.69,2.46 c 1.31,2.23 4.31,2.93 9.32,4 l 5.62,1.23 c 5.16,1.15 10.86,2.69 14.48,6.93 1.54,1.7 3.16,4.16 3.16,9.17 a 14.55,14.55 0 0 1 -5.31,11.95 z" class="cls-1" style="fill:#f9f9f9"/><path id="path10" d="M 242.54,31.73 V 22.4 h 9.17 v 9.33 z m 0,44.52 V 37.73 h 9.17 v 38.51 z" class="cls-1" style="fill:#f9f9f9"/><path id="path12" d="M 310.25,76.24 V 52.67 c 0,-1.46 -0.31,-7.47 -6.47,-7.47 a 8.09,8.09 0 0 0 -6.86,3.93 c -1.77,2.77 -1.85,5.93 -1.85,9 v 18.1 h -9.16 v -21.5 c 0,-0.85 -0.08,-1.7 -0.08,-2.55 a 7.21,7.21 0 0 0 -2.08,-5.45 6.21,6.21 0 0 0 -4.16,-1.46 7.63,7.63 0 0 0 -4.85,1.85 c -3.78,3.23 -3.85,8.62 -3.85,12.94 v 16.17 h -9.25 v -38.5 h 9.25 l 0.07,4.31 a 5.78,5.78 0 0 1 1.24,-1.38 17,17 0 0 1 10.86,-4.09 12,12 0 0 1 10.7,5.86 13.67,13.67 0 0 1 3.55,-3.31 15,15 0 0 1 8.86,-2.55 c 5.85,0 11.09,2.55 12.7,8.55 a 24.9,24.9 0 0 1 0.54,6.78 v 24.34 z" class="cls-1" style="fill:#f9f9f9"/><path id="path14" d="m 364.94,65.46 a 18.78,18.78 0 0 1 -18,11.94 20.74,20.74 0 0 1 -8.7,-1.77 c -4,-1.78 -11.33,-7.17 -11.33,-18.8 a 23.11,23.11 0 0 1 1.7,-8.62 c 1.62,-3.86 6.55,-11.64 18,-11.64 a 21.14,21.14 0 0 1 8.48,1.78 c 4.15,1.77 11.32,6.93 11.4,18.48 a 23.64,23.64 0 0 1 -1.55,8.63 z M 346.42,44.89 a 10.34,10.34 0 0 0 -5.24,1.47 c -2,1.31 -4.7,4.46 -4.7,10.24 a 15.32,15.32 0 0 0 0.77,5.24 c 0.62,1.85 3.31,7.09 9.63,7.09 7,0 10.17,-6.17 9.94,-12.25 -0.23,-6.08 -3.59,-11.79 -10.4,-11.79 z" class="cls-1" style="fill:#f9f9f9"/><path id="path16" d="M 398.52,76.24 V 56.6 a 23.24,23.24 0 0 0 -0.39,-5.93 6.16,6.16 0 0 0 -6.39,-5.08 7.33,7.33 0 0 0 -4.86,1.77 c -2.77,2.31 -3.62,5.54 -3.62,12.17 v 16.71 h -9.32 V 37.73 h 9.32 v 4.54 a 18.93,18.93 0 0 1 1.7,-2 c 3.62,-3.39 8.86,-3.7 10.17,-3.7 5.7,0 9,2.93 10.24,4.7 2.47,3.55 2.23,8.4 2.23,12.33 v 22.64 z" class="cls-1" style="fill:#f9f9f9"/><path id="path18" d="m 438.8,71.31 c -1.39,4.78 -3.39,12.94 -7,15.87 -2.39,1.93 -4.85,2.31 -7.86,2.31 a 21.59,21.59 0 0 1 -5.47,-0.54 v -8 c 3.7,0.46 5.78,0 7.17,-1.15 a 5.74,5.74 0 0 0 1.62,-2.78 L 413.3,37.73 h 9.94 l 8.63,28.73 7.24,-28.73 h 9.47 z" class="cls-1" style="fill:#f9f9f9"/><path id="path20" d="M 454.28,31.73 V 22.4 h 9.14 v 9.33 z m 0,44.52 V 37.73 h 9.14 v 38.51 z" class="cls-1" style="fill:#f9f9f9"/><path id="path22" d="m 530.3,76.24 -14.48,-25.57 -8.86,10.17 v 15.4 H 496.87 V 21.86 h 10.09 v 25 l 21.8,-25 h 11.94 l -17.79,20.49 19,33.89 z" class="cls-1" style="fill:#f9f9f9"/><path id="path24" d="m 569.66,76.24 -0.23,-3 a 13,13 0 0 1 -3.54,2.16 18.09,18.09 0 0 1 -7.78,1.77 c -1.85,0 -8.78,-0.23 -12.33,-5.93 a 11,11 0 0 1 -1.69,-6.17 11.21,11.21 0 0 1 5.24,-9.62 c 3.15,-2.16 6.16,-2.62 9.7,-3.32 a 70.58,70.58 0 0 0 10.63,-2.62 7.38,7.38 0 0 0 -0.54,-3.15 c -0.77,-1.47 -2.7,-2.63 -6.08,-2.63 -3.55,0 -5.78,1.08 -6.78,2.39 a 5,5 0 0 0 -1,3.38 l -9.4,-0.53 a 11.62,11.62 0 0 1 4.16,-8.86 c 2.39,-2 6,-3.55 12.71,-3.55 6.32,0 10,1.31 12.4,3 a 8.87,8.87 0 0 1 2.77,3.08 c 1,2 1,4.7 1,6.85 v 20.49 c 0,2.93 0.16,3.78 1.7,6.24 z m 0,-19.18 a 24.05,24.05 0 0 1 -7.32,2.16 c -2.08,0.38 -4.31,0.46 -6.24,1.62 a 4.54,4.54 0 0 0 -2.23,3.85 c 0,2.31 1.7,4.54 6.32,4.54 5.08,0 8.08,-2.62 8.93,-4.39 a 7.09,7.09 0 0 0 0.54,-3.54 z m -3.77,-25 h -6.93 l 3.85,-10.25 h 11.4 z" class="cls-1" style="fill:#f9f9f9"/><path id="path26" d="m 598.42,53.44 a 19.56,19.56 0 0 0 -0.69,6.32 v 16.48 h -8.94 V 37.73 h 8.94 v 5.47 a 11.65,11.65 0 0 1 2.31,-3.16 c 3.08,-3 8.09,-3.16 9.16,-3.16 h 0.78 v 9.48 c -1.96,0 -9.35,0 -11.56,7.08 z" class="cls-1" style="fill:#f9f9f9"/><path id="path28" d="m 651.85,65.46 a 18.78,18.78 0 0 1 -18,11.94 20.74,20.74 0 0 1 -8.7,-1.77 c -4,-1.78 -11.32,-7.17 -11.32,-18.8 a 23.16,23.16 0 0 1 1.69,-8.62 c 1.62,-3.86 6.55,-11.64 18,-11.64 a 21.14,21.14 0 0 1 8.48,1.78 c 4.16,1.77 11.32,6.93 11.4,18.48 a 23.64,23.64 0 0 1 -1.55,8.63 z M 633.36,44.89 a 10.34,10.34 0 0 0 -5.24,1.47 c -2,1.31 -4.7,4.46 -4.7,10.24 a 15.32,15.32 0 0 0 0.77,5.24 c 0.62,1.85 3.31,7.09 9.63,7.09 7,0 10.17,-6.17 9.94,-12.25 -0.23,-6.08 -3.62,-11.79 -10.4,-11.79 z" class="cls-1" style="fill:#f9f9f9"/><path id="path30" d="M 661.01,76.24 V 21.86 h 9.41 v 54.38 z" class="cls-1" style="fill:#f9f9f9"/><path id="path32" d="m 701.68,71.31 c -1.39,4.78 -3.39,12.94 -7,15.87 -2.39,1.93 -4.85,2.31 -7.86,2.31 a 21.59,21.59 0 0 1 -5.47,-0.54 v -8 c 3.7,0.46 5.78,0 7.17,-1.15 a 5.74,5.74 0 0 0 1.62,-2.78 L 676.18,37.73 h 9.94 l 8.63,28.73 7.24,-28.73 h 9.43 z" class="cls-1" style="fill:#f9f9f9"/><path id="path34" d="m 210.01,126.94 c -3.28,2.78 -7.68,2.82 -8.92,2.82 -1.62,0 -6.83,-0.08 -10.61,-4.05 a 10.61,10.61 0 0 1 -1.31,-1.78 l 4.28,-3 c 1.2,1.77 3.44,4.09 8.45,4.09 a 9.63,9.63 0 0 0 2,-0.19 c 0.58,-0.12 3.24,-0.85 3.24,-3.4 a 2.79,2.79 0 0 0 -0.5,-1.62 c -0.93,-1.24 -3.4,-1.58 -4.75,-1.89 l -3.24,-0.73 a 16.53,16.53 0 0 1 -4.13,-1.28 6.83,6.83 0 0 1 -3.89,-6.33 8.08,8.08 0 0 1 1,-4 c 1.23,-2.08 4.2,-4.48 9.72,-4.48 a 12.92,12.92 0 0 1 11,5.52 l -4.16,3.11 a 7.9,7.9 0 0 0 -7.06,-4 c -0.27,0 -3.7,0 -4.82,2.08 a 2.47,2.47 0 0 0 -0.31,1.23 2.24,2.24 0 0 0 0.35,1.24 c 0.65,1.12 2.16,1.47 4.67,2 l 2.81,0.61 c 2.59,0.58 5.44,1.35 7.26,3.48 a 6.19,6.19 0 0 1 1.58,4.59 7.28,7.28 0 0 1 -2.66,5.98 z" class="cls-1" style="fill:#f9f9f9"/><path id="path36" d="m 231.96,129.06 v -4.16 l 14.9,-18.53 h -13.62 v -4.55 h 20 v 4.32 l -14.32,18.33 h 14.32 v 4.59 z" class="cls-1" style="fill:#f9f9f9"/><path id="path38" d="m 290.47,129.06 -1.59,-5.33 h -10.22 l -1.58,5.32 h -5.48 l 9.22,-27.24 h 5.79 l 9.3,27.24 z m -6.68,-22.33 -3.78,12.54 h 7.52 z" class="cls-1" style="fill:#f9f9f9"/><path id="path40" d="m 333.15,129.06 -7.26,-12.81 -4.44,5.1 v 7.71 h -5 v -27.24 h 5 v 12.5 l 10.97,-12.5 h 6 l -9,10.26 9.53,17 z" class="cls-1" style="fill:#f9f9f9"/><path id="path42" d="m 375.9,129.06 -7.25,-12.81 -4.44,5.1 v 7.71 h -5.06 v -27.24 h 5.06 v 12.5 l 10.92,-12.5 h 6 l -8.91,10.26 9.53,17 z" class="cls-1" style="fill:#f9f9f9"/><path id="path44" d="m 423.02,125.86 a 12.21,12.21 0 0 1 -4.63,3.13 13.94,13.94 0 0 1 -4.75,0.77 11.5,11.5 0 0 1 -9.34,-4.21 14.69,14.69 0 0 1 -3.62,-10.07 16.54,16.54 0 0 1 0.81,-5.29 12.87,12.87 0 0 1 21.93,-4.74 14.51,14.51 0 0 1 3.39,10 15.37,15.37 0 0 1 -3.79,10.41 z m -3,-16.48 a 7.15,7.15 0 0 0 -6.33,-3.59 7.74,7.74 0 0 0 -3.47,0.81 c -1.93,1 -4.33,3.59 -4.33,8.69 0,1 0,6.06 3.86,8.56 a 7.36,7.36 0 0 0 4,1.16 7.45,7.45 0 0 0 3.12,-0.66 c 2,-0.92 4.63,-3.24 4.75,-8.37 a 12.11,12.11 0 0 0 -1.57,-6.6 z" class="cls-1" style="fill:#f9f9f9"/><path id="path46" d="m 448.76,129.06 v -27.24 h 5.13 v 22.61 h 10.81 v 4.63 z" class="cls-1" style="fill:#f9f9f9"/><path id="path48" d="m 485.88,129.06 v -27.24 h 5.13 v 22.61 h 10.81 v 4.63 z" class="cls-1" style="fill:#f9f9f9"/><path id="path50" d="m 522.85,129.06 v -27.24 h 19.37 v 4.55 h -14.35 v 6.41 h 13.16 v 4.4 h -13.16 v 7.29 h 15.32 v 4.59 z m 10.34,-29.9 h -3.43 l 2,-4.63 h 5.56 z" class="cls-1" style="fill:#f9f9f9"/><path id="path52" d="m 583.05,129.06 v -2.31 a 10.24,10.24 0 0 1 -7.49,3 12.19,12.19 0 0 1 -8.72,-3.44 14.63,14.63 0 0 1 -4,-10.61 16,16 0 0 1 3.21,-9.84 12.68,12.68 0 0 1 10,-4.75 13,13 0 0 1 4.48,0.82 12,12 0 0 1 7,7.21 l -4.86,1.93 c -0.46,-1.31 -1.89,-5.36 -6.64,-5.36 a 6.83,6.83 0 0 0 -4.9,2 c -1.31,1.35 -2.7,3.67 -2.7,7.88 0,1.12 0,5.21 3.12,7.83 a 6.85,6.85 0 0 0 4.6,1.54 6.32,6.32 0 0 0 6.13,-3.86 8.36,8.36 0 0 0 0.58,-2.43 h -6.79 v -4.47 h 11.35 v 14.89 z" class="cls-1" style="fill:#f9f9f9"/><path id="path54" d="m 610.02,129.06 v -27.24 h 5 v 27.24 z" class="cls-1" style="fill:#f9f9f9"/><path id="path56" d="m 659.8,123.51 c -0.88,2.74 -4,6.25 -10.68,6.25 -3.21,0 -6.41,-0.77 -8.65,-3.24 a 8,8 0 0 1 -1.74,-2.94 c -0.42,-1.39 -0.42,-2.66 -0.42,-5.55 v -16.21 h 5.11 v 16.75 a 8.65,8.65 0 0 0 0.27,3 c 0.5,1.62 2,3.24 5.6,3.24 0.65,0 4.4,0 5.52,-3.09 a 9.87,9.87 0 0 0 0.34,-3.43 v -16.47 h 5.1 v 15.7 c 0.02,3.13 0.06,4.44 -0.45,5.99 z" class="cls-1" style="fill:#f9f9f9"/><path id="path58" d="m 703.68,129.06 0.5,-22.38 -5.9,22.38 h -4.59 l -5.91,-22.33 0.5,22.38 h -5 v -27.29 h 7.41 l 5.33,20.22 5.25,-20.22 h 7.37 v 27.24 z" class="cls-1" style="fill:#f9f9f9"/><path id="path60" d="M 75.639999,8.1 A 67.53,67.53 0 1 1 8.1099993,75.63 67.52,67.52 0 0 1 75.639999,8.1 m 0,-8.1 A 75.64,75.64 0 1 0 151.28,75.63 75.72,75.72 0 0 0 75.639999,0 Z" class="cls-2"/><path id="path62" d="M 141.29,57.73 H 66.419999 a 3.9,3.9 0 1 1 0,-7.79 H 141.25 a 3.9,3.9 0 0 1 0,7.79 z M 53.729999,45.32 a 8.54,8.54 0 1 0 8.54,8.53 8.53,8.53 0 0 0 -8.54,-8.53 m 0,-8.11 a 16.64,16.64 0 1 1 -16.64,16.64 16.66,16.66 0 0 1 16.64,-16.64 z" class="cls-2"/><path id="path64" d="m 82.809999,102.8 h -70.39 a 3.45,3.45 0 0 1 0,-6.9 h 70.43 a 3.45,3.45 0 0 1 0,6.9 z" class="cls-2"/><path id="path66" d="m 95.419999,90.48 a 8.54,8.54 0 1 1 -8.53,8.54 8.54,8.54 0 0 1 8.53,-8.54 m 0,-8.1 A 16.64,16.64 0 1 0 112.06,99.02 16.66,16.66 0 0 0 95.419999,82.38 Z" class="cls-2"/><metadata id="metadata886"/></svg>